<svg xmlns="http://www.w3.org/2000/svg" width="460" height="40" viewBox="0 0 460 40">
  <rect width="460" height="40" fill="#08080a"/>
  <line x1="0" y1="1" x2="460" y2="1" stroke="#1e2430" stroke-width="1"/>
  <g>
    <rect x="16" y="10" width="22" height="20" rx="3.5" fill="#000000" stroke="#3e4a5b" stroke-width="1.2"/>
<rect x="56" y="10" width="22" height="20" rx="3.5" fill="#000000" stroke="#3e4a5b" stroke-width="1.2"/>
<rect x="96" y="10" width="22" height="20" rx="3.5" fill="#000000" stroke="#3e4a5b" stroke-width="1.2"/>
<rect x="136" y="10" width="22" height="20" rx="3.5" fill="#000000" stroke="#3e4a5b" stroke-width="1.2"/>
<rect x="176" y="10" width="22" height="20" rx="3.5" fill="#000000" stroke="#3e4a5b" stroke-width="1.2"/>
<rect x="216" y="10" width="22" height="20" rx="3.5" fill="#000000" stroke="#3e4a5b" stroke-width="1.2"/>
<rect x="256" y="10" width="22" height="20" rx="3.5" fill="#000000" stroke="#3e4a5b" stroke-width="1.2"/>
<rect x="296" y="10" width="22" height="20" rx="3.5" fill="#000000" stroke="#3e4a5b" stroke-width="1.2"/>
<rect x="336" y="10" width="22" height="20" rx="3.5" fill="#000000" stroke="#3e4a5b" stroke-width="1.2"/>
<rect x="376" y="10" width="22" height="20" rx="3.5" fill="#000000" stroke="#3e4a5b" stroke-width="1.2"/>
<rect x="416" y="10" width="22" height="20" rx="3.5" fill="#000000" stroke="#3e4a5b" stroke-width="1.2"/>

  </g>
  <text x="24" y="36" fill="#718096" font-family="monospace" font-size="6.5" letter-spacing="1">▸ 18A • 35MM SHOWREEL</text>
  <text x="340" y="36" fill="#e2e8f0" font-family="monospace" font-size="6.5" font-weight="bold" letter-spacing="1">FRAME 01</text>
</svg>